<svg width="40" height="40" viewBox="0 0 40 40" fill="none" xmlns="http://www.w3.org/2000/svg">
<path d="M4.69365 15.437C4.29761 15.8219 4.2886 16.455 4.67352 16.8511C5.05845 17.2471 5.69155 17.2561 6.0876 16.8712L4.69365 15.437ZM17.2487 16.8712C17.6448 17.2561 18.2779 17.2471 18.6628 16.8511C19.0477 16.455 19.0387 15.8219 18.6427 15.437L17.2487 16.8712ZM21.3603 32.1037C20.9643 32.4886 20.9552 33.1217 21.3402 33.5177C21.7251 33.9138 22.3582 33.9228 22.7542 33.5379L21.3603 32.1037ZM33.9154 33.5379C34.3114 33.9228 34.9445 33.9138 35.3294 33.5177C35.7144 33.1217 35.7054 32.4886 35.3093 32.1037L33.9154 33.5379ZM24.0761 8.00664C23.5531 7.82899 22.9852 8.10889 22.8076 8.63182C22.6299 9.15476 22.9098 9.72269 23.4327 9.90034L24.0761 8.00664ZM29.6171 15.3826C29.8562 15.8804 30.4536 16.0902 30.9514 15.851C31.4493 15.6119 31.659 15.0145 31.4199 14.5167L29.6171 15.3826ZM15.9272 31.9936C16.4501 32.1712 17.0181 31.8913 17.1957 31.3684C17.3734 30.8455 17.0935 30.2775 16.5705 30.0999L15.9272 31.9936ZM10.4825 24.813C10.2333 24.3201 9.63179 24.1225 9.13891 24.3717C8.64602 24.6209 8.44844 25.2224 8.69761 25.7153L10.4825 24.813ZM25.6238 13.8131C25.1009 13.6354 24.533 13.9153 24.3553 14.4383C24.1777 14.9612 24.4576 15.5291 24.9805 15.7068L25.6238 13.8131ZM30.0364 16.3683L29.7148 17.3151L30.0364 16.3683ZM32.1506 15.3263L33.0975 15.648L32.1506 15.3263ZM34.4378 11.7027C34.6154 11.1798 34.3355 10.6119 33.8126 10.4342C33.2896 10.2566 32.7217 10.5365 32.544 11.0594L34.4378 11.7027ZM14.3793 26.1871C14.9022 26.3647 15.4701 26.0848 15.6478 25.5619C15.8254 25.0389 15.5455 24.471 15.0226 24.2934L14.3793 26.1871ZM9.96666 23.6319L9.645 24.5787L9.96666 23.6319ZM7.85246 24.6739L6.90561 24.3522L7.85246 24.6739ZM5.56533 28.2974C5.38768 28.8204 5.66759 29.3883 6.19052 29.5659C6.71345 29.7436 7.28139 29.4637 7.45904 28.9408L5.56533 28.2974ZM6.0876 16.8712C9.16649 13.8787 14.1698 13.8787 17.2487 16.8712L18.6427 15.437C14.7876 11.6901 8.54874 11.6901 4.69365 15.437L6.0876 16.8712ZM14.8788 9.04239C14.8788 10.696 13.4914 12.0848 11.7197 12.0848V14.0848C14.5419 14.0848 16.8788 11.8539 16.8788 9.04239H14.8788ZM11.7197 12.0848C9.94789 12.0848 8.56052 10.696 8.56052 9.04239H6.56052C6.56052 11.8539 8.89738 14.0848 11.7197 14.0848V12.0848ZM8.56052 9.04239C8.56052 7.38877 9.94789 6 11.7197 6V4C8.89738 4 6.56052 6.23091 6.56052 9.04239H8.56052ZM11.7197 6C13.4914 6 14.8788 7.38877 14.8788 9.04239H16.8788C16.8788 6.23091 14.5419 4 11.7197 4V6ZM22.7542 33.5379C25.8331 30.5454 30.8365 30.5454 33.9154 33.5379L35.3093 32.1037C31.4542 28.3568 25.2154 28.3568 21.3603 32.1037L22.7542 33.5379ZM31.5454 25.7091C31.5454 27.3627 30.1581 28.7514 28.3863 28.7514V30.7514C31.2086 30.7514 33.5454 28.5205 33.5454 25.7091H31.5454ZM28.3863 28.7514C26.6145 28.7514 25.2272 27.3627 25.2272 25.7091H23.2272C23.2272 28.5205 25.564 30.7514 28.3863 30.7514V28.7514ZM25.2272 25.7091C25.2272 24.0554 26.6145 22.6667 28.3863 22.6667V20.6667C25.564 20.6667 23.2272 22.8976 23.2272 25.7091H25.2272ZM28.3863 22.6667C30.1581 22.6667 31.5454 24.0554 31.5454 25.7091H33.5454C33.5454 22.8976 31.2086 20.6667 28.3863 20.6667V22.6667ZM23.4327 9.90034C26.259 10.8605 28.4187 12.8876 29.6171 15.3826L31.4199 14.5167C29.9984 11.5572 27.4318 9.14665 24.0761 8.00664L23.4327 9.90034ZM16.5705 30.0999C13.8183 29.1649 11.6984 27.2182 10.4825 24.813L8.69761 25.7153C10.14 28.5686 12.6596 30.8835 15.9272 31.9936L16.5705 30.0999ZM24.9805 15.7068L29.7148 17.3151L30.3581 15.4214L25.6238 13.8131L24.9805 15.7068ZM33.0975 15.648L34.4378 11.7027L32.544 11.0594L31.2038 15.0046L33.0975 15.648ZM29.7148 17.3151C31.1092 17.7889 32.6237 17.0425 33.0975 15.648L31.2038 15.0046C31.0853 15.3533 30.7067 15.5399 30.3581 15.4214L29.7148 17.3151ZM15.0226 24.2934L10.2883 22.685L9.645 24.5787L14.3793 26.1871L15.0226 24.2934ZM6.90561 24.3522L5.56533 28.2974L7.45904 28.9408L8.79932 24.9955L6.90561 24.3522ZM10.2883 22.685C8.89384 22.2113 7.37935 22.9577 6.90561 24.3522L8.79932 24.9955C8.91775 24.6469 9.29637 24.4603 9.645 24.5787L10.2883 22.685Z" fill="#FFD464"/>
</svg>
