<svg width="40" height="40" viewBox="0 0 40 40" fill="none" xmlns="http://www.w3.org/2000/svg">
<path d="M33.3359 16.668V12.0013C33.3359 10.1345 33.3359 9.20104 32.9726 8.488C32.653 7.86079 32.1431 7.35086 31.5159 7.03128C30.8029 6.66797 29.8694 6.66797 28.0026 6.66797H8.66927C6.80243 6.66797 5.86901 6.66797 5.15597 7.03128C4.52876 7.35086 4.01883 7.86079 3.69925 8.488C3.33594 9.20104 3.33594 10.1345 3.33594 12.0013V28.0013C3.33594 29.8681 3.33594 30.8016 3.69925 31.5146C4.01883 32.1418 4.52876 32.6517 5.15597 32.9713C5.86901 33.3346 6.80243 33.3346 8.66927 33.3346H28.0026C29.8694 33.3346 30.8029 33.3346 31.5159 32.9713C32.1431 32.6517 32.653 32.1418 32.9726 31.5146C33.3359 30.8016 33.3359 29.8681 33.3359 28.0013V24.168M26.0026 23.3346H34.0026C34.936 23.3346 35.4027 23.3346 35.7593 23.153C36.0729 22.9932 36.3278 22.7382 36.4876 22.4246C36.6693 22.0681 36.6693 21.6014 36.6693 20.668V19.3346C36.6693 18.4012 36.6693 17.9345 36.4876 17.578C36.3278 17.2644 36.0729 17.0094 35.7593 16.8496C35.4027 16.668 34.936 16.668 34.0026 16.668H26.0026C25.0692 16.668 24.6025 16.668 24.246 16.8496C23.9323 17.0094 23.6774 17.2644 23.5176 17.578C23.3359 17.9345 23.3359 18.4012 23.3359 19.3346V20.668C23.3359 21.6014 23.3359 22.0681 23.5176 22.4246C23.6774 22.7382 23.9323 22.9932 24.246 23.153C24.6025 23.3346 25.0692 23.3346 26.0026 23.3346Z" stroke="#FFD464" stroke-width="2"/>
</svg>
