<svg width="36" height="36" viewBox="0 0 36 36" fill="none" xmlns="http://www.w3.org/2000/svg">
<path d="M18 17.9992L22.5 13.4992M34.5 17.9992C34.5 27.1119 27.1127 34.4992 18 34.4992C8.8873 34.4992 1.5 27.1119 1.5 17.9992C1.5 8.88647 8.8873 1.49916 18 1.49916M28.5 17.9992C28.5 23.7982 23.799 28.4992 18 28.4992C12.201 28.4992 7.5 23.7982 7.5 17.9992C7.5 12.2002 12.201 7.49916 18 7.49916M22.5 12.7492V6.17852C22.5 5.97662 22.5814 5.78325 22.7258 5.64213L27.2258 1.24441C27.7007 0.780293 28.5 1.11677 28.5 1.7808V6.74916C28.5 7.16338 28.8358 7.49916 29.25 7.49916H34.2184C34.8824 7.49916 35.2189 8.29846 34.7548 8.77336L30.357 13.2734C30.2159 13.4178 30.0225 13.4992 29.8206 13.4992H23.25C22.8358 13.4992 22.5 13.1634 22.5 12.7492Z" stroke="#FFD464" stroke-width="2" stroke-linecap="round"/>
</svg>
