<svg width="481" height="96" viewBox="0 0 481 96" fill="none" xmlns="http://www.w3.org/2000/svg">
<path d="M0 0.0545174C1.179 -0.0370265 2.36594 0.0167077 3.55488 0.00675732C28.2742 0.00476723 52.9935 0.00675732 77.7148 0.00675732C81.4845 0.0107375 85.3118 0.100307 88.9701 1.11724C92.4057 1.94711 95.7339 3.66258 98.0204 6.41885C100.199 8.97412 101.394 12.2199 102.06 15.4776C102.883 19.3742 102.669 23.3803 102.703 27.3346C102.703 31.1834 102.697 35.0323 102.705 38.8791C102.697 41.9359 102.402 45.0005 101.683 47.9737C100.877 51.0663 99.4519 54.0793 97.1455 56.3361C95.038 58.4973 92.2228 59.8088 89.3597 60.6347C87.3934 61.0585 85.4211 61.4884 83.415 61.6476C78.9336 61.9023 74.4462 61.8128 69.9608 61.8268C60.155 61.8248 50.3472 61.8307 40.5414 61.8247C40.3824 62.6566 40.4738 63.5063 40.4659 64.3501C40.4639 68.3303 40.4639 72.3105 40.4659 76.2906C40.4897 80.4181 40.3148 84.5853 41.0742 88.663C41.4023 90.5157 41.8994 92.3427 42.631 94.0781C42.8597 94.693 43.2215 95.2681 43.3189 95.9288C29.2047 95.9328 15.0884 95.9169 0.9742 95.9368C1.14121 95.2522 1.46531 94.6234 1.74366 93.9786C2.38784 92.3766 2.86896 90.7128 3.16918 89.0112C3.68015 86.7963 3.74776 84.5157 3.8253 82.255C3.82331 60.1013 3.82331 37.9457 3.82331 15.7921C3.83922 13.1373 3.7875 10.4627 3.30039 7.84573C2.89678 6.16809 2.51307 4.46054 1.71978 2.91424C1.25056 1.8993 0.576579 1.00379 0 0.0545174ZM40.5136 15.9791C40.4838 16.2478 40.4659 16.5165 40.4619 16.7871C40.4699 25.4778 40.4619 34.1665 40.4659 42.8572C40.4699 43.8562 40.4122 44.8573 40.5136 45.8543C41.5097 45.9538 42.5137 45.9001 43.5178 45.9061C48.9515 45.9081 54.3853 45.9041 59.821 45.908C60.666 45.8941 61.5209 45.8782 62.3659 45.7428C63.5509 45.5299 64.6901 44.8155 65.2389 43.715C66.0779 42.1129 66.0639 40.2523 66.1176 38.489C66.1196 33.4402 66.1196 28.3913 66.1196 23.3445C66.062 21.828 66.0978 20.2598 65.5451 18.823C65.2727 18.0508 64.8392 17.3046 64.1553 16.8349C63.0678 16.0807 61.6999 15.9314 60.4155 15.9234C54.7829 15.9314 49.1503 15.9254 43.5178 15.9274C42.5137 15.9334 41.5097 15.8796 40.5136 15.9791Z" fill="white"/>
<path d="M111.709 0.0479384C112.633 -0.0256947 113.564 0.00814449 114.498 0.0061544C137.428 0.0061544 160.358 0.0061544 183.288 0.0061544C187.497 0.0360057 191.712 -0.101316 195.915 0.199187C197.341 0.346453 198.774 0.483751 200.172 0.828036C203.57 1.4569 206.976 2.65493 209.62 4.95547C211.92 6.92963 213.449 9.69193 214.288 12.5815C214.654 14.1637 215.074 15.7497 215.127 17.3836C215.167 18.9757 215.34 20.5637 215.302 22.1577C215.296 27.73 215.3 33.3022 215.3 38.8745C215.28 41.2128 215.187 43.585 214.507 45.8398C214.093 47.1811 213.626 48.5363 212.763 49.6627C211.708 51.213 210.105 52.3095 208.387 53.0041C207.564 53.2628 206.731 53.4698 205.9 53.6768C204.156 53.9872 202.385 54.0867 200.629 54.2757C201.311 55.5176 201.838 56.837 202.484 58.0968C203.109 59.454 203.858 60.7495 204.417 62.1406C205.147 63.6908 205.938 65.2132 206.693 66.7556C207.485 68.5287 208.354 70.2681 209.216 72.0074C210.139 74.0393 211.139 76.0353 212.127 78.0373C213.066 80.1369 214.129 82.1767 215.076 84.2763C216.885 88.0137 218.424 91.952 221.02 95.2417C221.183 95.4725 221.334 95.7193 221.498 95.968C208.431 96.0238 195.363 95.9661 182.296 95.9959C181.724 96.0059 181.157 96.0039 180.6 95.9163C179.95 94.0854 179.131 92.3222 178.405 90.5211C173.415 78.5886 168.446 66.6421 163.49 54.6956C163.39 54.2877 162.933 54.3295 162.621 54.3135C159.434 54.3195 156.249 54.3334 153.064 54.3096C152.74 54.3056 152.431 54.3494 152.135 54.3971C152.137 60.433 152.135 66.471 152.137 72.5069C152.173 77.2413 151.996 81.9897 152.427 86.7141C152.797 89.0863 153.175 91.4983 154.139 93.7172C154.443 94.4715 154.809 95.2038 155.062 95.9819C143.926 95.9998 132.79 95.9839 121.656 95.9899C118.652 95.97 115.648 96.0277 112.647 95.964C112.761 95.2357 113.16 94.6068 113.433 93.9322C114.558 91.2038 115.105 88.2723 115.359 85.3429C115.666 80.5389 115.52 75.7249 115.554 70.9148C115.554 53.9991 115.554 37.0834 115.554 20.1677C115.542 17.7099 115.602 15.2522 115.455 12.7984C115.461 11.1904 115.25 9.59633 114.96 8.02018C114.731 6.30075 114.196 4.63312 113.475 3.06295C112.987 1.99626 112.262 1.07283 111.709 0.0479384ZM152.133 16.0004C152.141 23.4254 152.137 30.8505 152.135 38.2755C152.897 38.4247 153.68 38.3452 154.461 38.3531C160.227 38.3531 165.993 38.3531 171.759 38.3531C173.069 38.3492 174.393 38.3989 175.695 38.184C176.604 38.0247 177.524 37.5789 178.016 36.759C178.757 35.6207 178.68 34.2037 178.717 32.9042C178.713 28.8564 178.725 24.8085 178.709 20.7607C178.705 19.4731 178.527 18.0582 177.65 17.0532C176.495 15.9965 174.819 15.9706 173.345 15.9288C167.116 15.9229 160.887 15.9288 154.66 15.9268C153.813 15.9288 152.966 15.8711 152.133 16.0004Z" fill="white"/>
<path d="M227.172 0.0543665C228.176 -0.0331972 229.19 0.0145706 230.206 0.0105905C241.539 0.00661028 252.872 0.0105885 264.204 0.00859842C265.99 0.0384497 267.779 -0.0550862 269.567 0.0563585C269.173 1.22056 268.559 2.29723 268.205 3.47536C267.662 4.95598 267.356 6.50423 267.177 8.06645C266.7 10.4088 266.739 12.8068 266.654 15.185C266.648 36.7475 266.656 58.3101 266.65 79.8707C266.666 81.7314 266.684 83.5981 266.894 85.4509C267.008 87.8669 267.473 90.2669 268.224 92.5674C268.592 93.7376 269.201 94.8142 269.573 95.9864C260.294 96.0023 251.017 95.9864 241.738 95.9923C236.879 95.9724 232.017 96.0282 227.16 95.9665C227.252 95.3476 227.58 94.8102 227.832 94.251C229.208 90.9674 229.82 87.4091 229.954 83.8668C230.164 79.4866 230.031 75.1004 230.069 70.7182C230.069 52.2761 230.071 33.836 230.067 15.3939C229.96 12.8028 230.007 10.1859 229.463 7.63656C229.222 6.14798 228.963 4.65146 228.411 3.24049C228.047 2.15789 227.472 1.15687 227.172 0.0543665Z" fill="white"/>
<path d="M280.16 0.0436876C284.315 -0.0438761 288.477 0.0317587 292.638 0.00588764C311.458 0.00588764 330.281 0.00588764 349.103 0.00588764C352.837 0.0198182 356.579 -0.0756903 360.307 0.220832C363.17 0.483523 366.011 1.03076 368.749 1.92829C371.874 3.03478 374.868 4.79203 376.962 7.41298C379.212 10.1215 380.533 13.4946 381.222 16.9216C381.759 19.2878 382.028 21.7157 382.077 24.1416C382.248 27.3914 382.135 30.6472 382.169 33.899C382.163 45.9052 382.179 57.9094 382.161 69.9136C381.972 73.0818 381.893 76.2838 381.183 79.3883C380.431 82.4192 379.375 85.4442 377.467 87.9517C375.385 90.7558 372.361 92.7597 369.091 93.904C366.657 94.8413 364.07 95.2533 361.507 95.6374C358.641 95.9259 355.758 95.9498 352.881 95.9279C329.354 95.9299 305.826 95.926 282.299 95.9299C281.598 95.9061 280.88 96.0314 280.21 95.8225C282.115 91.9259 282.987 87.5835 283.055 83.261C283.234 79.9436 283.127 76.6221 283.156 73.3026C283.154 53.9988 283.158 34.6951 283.154 15.3932C283.053 13.3972 283.119 11.3852 282.777 9.41103C282.588 7.57219 282.224 5.75727 281.739 3.97814C281.341 2.61493 280.695 1.34918 280.16 0.0436876ZM319.735 15.9982C319.739 37.3419 319.747 58.6875 319.731 80.0311C321.034 80.1187 322.344 80.047 323.654 80.0689C328.424 80.0689 333.195 80.0689 337.969 80.0689C339.872 80.0172 341.908 80.1486 343.634 79.1874C344.767 78.5446 345.135 77.1834 345.385 75.9953C345.66 73.9156 345.57 71.8121 345.586 69.7205C345.586 55.4595 345.586 41.1966 345.586 26.9337C345.57 24.6272 345.654 22.3127 345.411 20.0142C345.28 19.0649 344.964 18.1057 344.341 17.3674C343.713 16.6291 342.741 16.3405 341.838 16.1355C340.494 15.8908 339.124 15.9286 337.77 15.9246C332.667 15.9286 327.563 15.9245 322.461 15.9265C321.547 15.9345 320.634 15.8629 319.735 15.9982Z" fill="white"/>
<path d="M393.412 0.0532901C395.806 -0.0462141 398.204 0.0393673 400.601 0.0115061C424.991 0.0115061 449.378 0.0115061 473.767 0.0115061C474.616 0.0154863 475.475 -0.0462355 476.33 0.0811299C476.634 2.2941 477.119 4.47722 477.434 6.69019C477.891 10.6087 478.891 14.4535 479.203 18.3899C477.601 18.0675 476.084 17.4267 474.481 17.1203C473.246 16.8934 472.036 16.5671 470.795 16.4218C465.983 15.7352 461.112 15.9779 456.271 15.9321C449.577 15.9321 442.883 15.9321 436.19 15.9321C435.115 15.9421 434.043 15.8844 432.981 15.9779C432.88 16.9749 432.938 17.978 432.934 18.979C432.932 23.7552 432.934 28.5314 432.934 33.3076C432.961 34.9753 432.864 36.647 432.979 38.3127C435.57 38.4242 438.167 38.3246 440.763 38.3585C447.322 38.3545 453.881 38.3644 460.44 38.3545C463.24 38.2829 466.059 38.1475 468.805 37.5425C470.032 37.3515 471.242 37.0609 472.441 36.7167C473.415 36.4321 474.364 36.0419 475.382 35.8947C475.473 38.0818 475.39 40.2729 475.42 42.464C475.418 46.1775 475.42 49.8909 475.418 53.6064C475.404 54.6671 475.467 55.7319 475.366 56.7926C474.352 56.6235 473.413 56.1955 472.427 55.9528C471.171 55.6463 469.924 55.302 468.654 55.0811C467.487 54.8164 466.288 54.7667 465.119 54.5557C462.178 54.2433 459.22 54.3408 456.271 54.3269C449.975 54.3269 443.678 54.3269 437.383 54.3269C435.912 54.3547 434.441 54.2632 432.979 54.3726C432.872 55.5727 432.95 56.7806 432.934 57.9846C432.934 64.3529 432.932 70.7212 432.934 77.0894C432.938 78.0785 432.88 79.0696 432.981 80.0567C439.483 80.1005 445.988 80.0606 452.494 80.0746C457.398 80.0507 462.305 80.1323 467.21 80.0089C468.34 80.0566 469.463 79.8974 470.586 79.7601C472.706 79.6507 474.795 79.2129 476.867 78.7532C478.261 78.4487 479.587 77.8775 481 77.6228C480.802 79.8258 480.356 82.001 479.899 84.1622C479.654 85.7582 479.446 87.3603 479.07 88.9325C478.581 91.2469 478.296 93.5972 477.855 95.9196C449.72 95.9535 421.583 95.9236 393.446 95.9335C393.563 95.0857 394.092 94.3714 394.368 93.5714C395.309 91.0639 395.848 88.411 396.092 85.7463C396.382 82.2039 396.287 78.6497 396.303 75.0993C396.301 55.1328 396.307 35.1684 396.301 15.2038C396.317 13.9361 396.225 12.6724 396.124 11.4107C396.025 8.48728 395.478 5.5778 394.492 2.8275C394.162 1.88818 393.683 1.01052 393.412 0.0532901Z" fill="white"/>
</svg>
