<svg width="559" height="117" viewBox="0 0 559 117" fill="none" xmlns="http://www.w3.org/2000/svg">
<path d="M423.246 0.0852192C428.075 0.0475644 432.905 0.0793066 437.736 0.0693974C440.719 0.0535428 443.702 0.116946 446.685 0.00398156C470.88 0.00596339 495.077 0.00398156 519.274 0.00398156C522.798 0.0178544 526.33 -0.083217 529.844 0.253694C532.656 0.503405 535.381 1.28422 538.123 1.91444C540.8 2.50503 543.435 3.47021 545.684 5.06162C546.655 5.7394 547.617 6.43303 548.576 7.13262C550.022 8.18497 551.258 9.50886 552.279 10.9734C553.156 12.2259 554.118 13.423 554.862 14.7647C555.477 15.7933 555.912 16.9169 556.324 18.0426C556.881 19.6161 557.151 21.271 557.603 22.8763C557.911 24.2556 558.332 25.6152 558.489 27.0243C559.14 30.4845 558.963 34.024 558.993 37.5259C558.993 40.6295 558.993 43.735 558.995 46.8405C559.02 50.7685 559.009 54.7639 557.925 58.573C557.543 60.3309 557.187 62.1006 556.646 63.8189C556.008 66.2862 554.798 68.5871 553.255 70.6106C552.35 71.8155 551.551 73.1058 550.485 74.1799C549.27 75.4443 547.79 76.3995 546.378 77.4182C545.251 78.2545 544.028 78.9561 542.763 79.5606C540.209 80.6962 537.427 81.1302 534.746 81.8516C532.208 82.3966 529.641 82.8802 527.036 82.8782C524.184 83.0209 521.33 82.9634 518.478 82.9753C511.255 82.9733 504.032 82.9793 496.811 82.9694C496.664 83.5996 496.722 84.2496 496.728 84.8937C496.765 88.5759 496.602 92.274 497.034 95.9424C497.235 97.7617 498.004 99.5236 499.255 100.871C501.767 104.123 504.203 107.431 506.707 110.689C507.443 111.674 508.205 112.645 508.922 113.646C509.684 114.712 510.551 115.701 511.293 116.785C504.474 116.813 497.654 116.799 490.837 116.793C489.771 116.765 488.721 116.94 487.663 116.948C480.963 116.936 474.265 116.946 467.567 116.942C461.8 116.968 456.03 116.886 450.265 116.999C441.258 116.983 432.251 117.019 423.244 116.983C427.448 110.887 431.696 104.821 435.91 98.7308C436.769 97.286 437.205 95.6371 437.543 94.0041C437.786 93.0964 437.903 92.1631 438.008 91.2316C438.667 87.5058 438.591 83.7065 438.603 79.9371C438.595 62.6972 438.613 45.4572 438.593 28.2153C438.639 26.2037 438.14 24.2477 437.664 22.3114C437.09 20.5317 436.344 18.7659 435.147 17.3113C434.466 16.4571 433.876 15.5416 433.251 14.6497C429.928 9.78632 426.553 4.95656 423.246 0.0852192ZM445.516 10.7554C446.093 11.7007 446.767 12.5925 447.236 13.6033C448.03 15.1432 448.413 16.8436 448.817 18.5143C449.304 21.1204 449.356 23.7839 449.34 26.4277C449.34 48.4894 449.34 70.5532 449.342 92.6149C449.265 94.8663 449.197 97.1374 448.686 99.3432C448.386 101.038 447.904 102.695 447.26 104.29C446.982 104.932 446.657 105.558 446.49 106.24C460.608 106.22 474.728 106.236 488.846 106.232C488.749 105.574 488.387 105.001 488.158 104.389C487.426 102.661 486.929 100.841 486.601 98.9963C485.841 94.9356 486.016 90.7856 485.992 86.6753C485.99 82.7117 485.99 78.748 485.992 74.7843C486 73.944 485.909 73.0978 486.068 72.2694C495.876 72.2754 505.687 72.2695 515.495 72.2714C519.982 72.2576 524.47 72.3467 528.953 72.093C530.96 71.9344 532.932 71.5064 534.899 71.0843C537.763 70.2618 540.579 68.9558 542.687 66.8035C544.994 64.5561 546.42 61.5556 547.225 58.4759C547.945 55.515 548.24 52.463 548.248 49.4189C548.24 45.5881 548.246 41.7552 548.246 37.9223C548.212 33.9844 548.427 29.995 547.603 26.1145C546.937 22.8703 545.742 19.638 543.562 17.0933C541.275 14.3485 537.946 12.6401 534.509 11.8137C530.85 10.801 527.022 10.7118 523.251 10.7078C498.523 10.7078 473.798 10.7059 449.072 10.7078C447.882 10.7178 446.695 10.6642 445.516 10.7554Z" fill="#D1511B"/>
<path d="M0.0238653 10.74C0.948623 10.6746 1.87736 10.7084 2.80609 10.7064C15.0706 10.7064 27.3331 10.7064 39.5975 10.7064C40.5362 10.7064 41.4809 10.6628 42.4195 10.7639C42.171 11.6636 41.6817 12.4702 41.3874 13.3541C40.6118 15.2705 40.2876 17.3237 39.9177 19.3472C39.6154 20.9663 39.6592 22.6171 39.5558 24.2541C39.4285 26.6938 39.4782 29.1374 39.4703 31.579C39.4703 38.8444 39.4723 46.1078 39.4683 53.3732C39.9853 53.066 40.3016 52.5349 40.6933 52.0949C41.4908 51.1099 42.4116 50.232 43.1991 49.2371C46.4447 45.4062 49.7719 41.6467 53.0314 37.8277C53.9721 36.7179 54.9088 35.6041 55.8972 34.5379C57.6194 32.558 59.27 30.5148 61.0519 28.5865C62.9213 26.3549 64.8763 24.1927 66.6959 21.9176C67.3443 20.9782 67.9886 20.0289 68.5335 19.0242C69.1898 17.4843 69.7009 15.8294 69.5716 14.1369C69.6671 13.0073 69.3807 11.9153 69.2594 10.8055C69.506 10.7559 69.7606 10.7222 70.0211 10.7044C79.8991 10.7103 89.7791 10.7044 99.6571 10.7064C100.6 10.7123 101.546 10.6628 102.491 10.7579C102.101 11.1463 101.594 11.3703 101.121 11.6299C99.8739 12.2819 98.6985 13.0607 97.4874 13.7762C95.1507 15.431 92.9074 17.2384 90.9445 19.3293C85.3383 25.2371 79.7818 31.1945 74.1974 37.1222C73.6485 37.7306 73.0281 38.2736 72.5527 38.9435C72.7914 39.5935 73.205 40.1544 73.561 40.743C76.212 45.2873 78.8908 49.8138 81.5796 54.3363C82.0668 55.2837 82.6316 56.1854 83.1944 57.0911C83.9084 58.3495 84.6362 59.6021 85.4079 60.8289C87.144 63.8472 88.9259 66.8377 90.7098 69.8283C91.6008 71.4891 92.6647 73.0488 93.5676 74.7057C94.8563 76.8024 96.0177 78.9725 97.3223 81.0613C99.1679 84.1768 100.958 87.3259 102.895 90.3879C103.545 91.4442 104.172 92.5183 104.909 93.5211C105.615 94.4823 106.166 95.5485 106.874 96.5117C108.646 99.0782 110.514 101.581 112.536 103.959C113.18 104.76 113.926 105.475 114.569 106.282C100.252 106.314 85.9349 106.28 71.618 106.298C70.916 106.302 70.214 106.324 69.5199 106.227C68.8219 104.75 67.9886 103.343 67.2707 101.876C66.6442 100.777 66.0138 99.6786 65.4848 98.5312C64.2021 96.1094 62.9114 93.6955 61.6346 91.2717C61.1275 90.15 60.4533 89.1155 59.9124 88.0136C58.5302 85.3639 57.0844 82.7498 55.7221 80.0922C54.8372 78.6197 54.1451 77.0482 53.3297 75.54C52.566 74.2954 51.9873 72.9497 51.2515 71.6893C50.2253 69.7451 49.219 67.789 48.167 65.8607C45.8143 68.5421 43.3781 71.1482 41.0394 73.8396C40.5482 74.4242 39.9277 74.9236 39.5737 75.6093C39.4683 76.2514 39.5279 76.9074 39.524 77.5574C39.5319 82.3792 39.516 87.2011 39.5319 92.0229C39.6135 94.294 39.6652 96.5791 40.1027 98.8186C40.3314 100.386 40.8226 101.898 41.3118 103.403C41.628 104.382 42.157 105.279 42.4176 106.278C31.402 106.316 20.3845 106.282 9.36889 106.294C6.24659 106.278 3.1223 106.322 0 106.276C0.121312 105.884 0.256546 105.493 0.429565 105.123C1.77593 102.128 2.52568 98.882 2.74246 95.6119C2.7882 94.6111 2.86178 93.6143 2.87769 92.6134C2.8757 69.8264 2.87968 47.0393 2.8757 24.2522C2.80411 22.6529 2.80013 21.0397 2.49386 19.4621C2.22936 17.5853 1.90918 15.7006 1.25091 13.9149C0.924758 12.823 0.326152 11.838 0.0238653 10.74Z" fill="#D1511B"/>
<path d="M115.18 10.7499C116.166 10.6686 117.158 10.7063 118.149 10.7043C123.851 10.7023 129.552 10.7063 135.252 10.7043C136.236 10.7043 137.221 10.6745 138.205 10.7479C137.127 12.5157 135.811 14.2319 135.411 16.3109C134.411 20.0625 134.781 23.9766 134.594 27.8114C134.588 47.2333 134.596 66.6553 134.592 86.0772C134.584 86.9314 134.55 87.7915 134.663 88.6437C135.053 88.6239 135.192 88.2334 135.363 87.9441C138.903 80.8472 142.469 73.7642 146.009 66.6652C146.709 65.3513 147.216 63.9422 147.962 62.65C148.863 60.902 149.674 59.1104 150.615 57.3823C151.798 54.8812 153.129 52.4535 154.31 49.9525C159.713 39.2268 165.061 28.4753 170.482 17.7576C171.377 15.8293 172.423 13.9743 173.322 12.046C173.511 11.6397 173.676 11.2176 173.939 10.8509C174.187 10.6706 174.519 10.7281 174.816 10.6983C190.531 10.7122 206.245 10.6983 221.96 10.7063C223.08 10.7142 224.204 10.6607 225.327 10.7499C224.48 12.2442 223.353 13.6136 222.889 15.2922C222.585 16.3426 222.219 17.391 222.149 18.4909C222.106 19.0954 222.074 19.7038 221.97 20.3023C221.732 21.537 221.859 22.7974 221.825 24.044C221.845 25.4987 221.803 26.9533 221.762 28.406C221.762 46.7716 221.762 65.1352 221.762 83.5008C221.777 85.7482 221.716 87.9956 221.813 90.243C221.849 91.9593 221.799 93.6775 221.843 95.3958C222.006 97.6055 222.195 99.855 222.961 101.954C223.522 103.515 224.49 104.871 225.341 106.278C218.846 106.31 212.349 106.282 205.852 106.292C204.706 106.278 203.563 106.332 202.421 106.266C202.642 105.608 203.113 105.079 203.451 104.481C204.193 103.295 204.746 101.995 205.12 100.65C205.498 98.9255 205.786 97.1715 205.79 95.4037C205.83 92.6906 205.941 89.9794 205.915 87.2663C205.917 67.5114 205.913 47.7566 205.915 28.0037C205.899 27.7282 205.88 27.4567 205.858 27.1871C205.462 27.3298 205.343 27.7797 205.146 28.1047C203.71 31.0715 202.183 33.9888 200.717 36.9397C198.772 40.8162 196.829 44.6907 194.884 48.5671C194.251 49.7423 193.796 51.0009 193.104 52.1444C192.209 53.8606 191.348 55.5947 190.525 57.3446C189.912 58.3653 189.554 59.5068 188.979 60.5433C184.495 69.4774 180.044 78.4274 175.524 87.3436C173.857 90.7623 172.077 94.1274 170.427 97.554C169.269 99.7737 168.177 102.027 167.038 104.257C166.696 104.883 166.425 105.545 166.177 106.215C165.548 106.322 164.914 106.304 164.285 106.298C149.111 106.272 133.935 106.32 118.763 106.274C118.71 105.289 118.753 104.304 118.745 103.319C118.743 78.679 118.745 54.037 118.745 29.3969C118.775 27.0821 118.63 24.7693 118.682 22.4546C118.636 19.6126 118.288 16.7231 117.168 14.0872C116.58 12.9318 115.868 11.8458 115.18 10.7499Z" fill="#D1511B"/>
<path d="M233.117 10.7422C234.104 10.6729 235.094 10.7086 236.086 10.7066C266.247 10.7066 296.41 10.7066 326.574 10.7066C328.578 10.7383 330.587 10.6412 332.591 10.7521C332.542 11.2218 332.468 11.6915 332.339 12.1474C331.619 14.7416 330.889 17.3338 330.211 19.9399C329.539 22.1397 329.061 24.3951 328.332 26.5771C327.415 26.6702 326.494 26.6206 325.579 26.6246C315.834 26.6226 306.09 26.6286 296.345 26.6227C293.694 26.5137 291.041 26.5771 288.39 26.5612C284.146 26.5612 279.904 26.5592 275.664 26.5631C274.662 26.5671 273.659 26.5117 272.665 26.6108C272.566 27.6037 272.621 28.6005 272.617 29.5973C272.613 33.6918 272.615 37.7882 272.615 41.8847C272.635 44.4591 272.566 47.0375 272.669 49.6119C272.713 51.6532 272.635 53.6964 272.697 55.7397C280.379 55.7972 288.066 55.7139 295.75 55.7813C297.803 55.8844 299.865 55.7159 301.909 55.9715C302.631 56.0409 303.361 56.0032 304.091 56.0429C306.412 56.251 308.745 56.3422 311.061 56.6256C312.03 56.8119 313 56.9843 313.991 57.0576C316.477 57.3886 318.963 57.7453 321.413 58.2923C322.771 58.4845 324.05 58.9978 325.368 59.3585C327.218 60.0402 329.059 60.9538 330.356 62.4838C331.683 64.0316 332.265 66.0532 332.494 68.0429C332.745 70.0822 332.649 72.1393 332.667 74.1885C332.661 78.4792 332.675 82.7699 332.661 87.0605C332.538 89.3773 332.492 91.7456 331.742 93.9672C331.543 94.5757 331.368 95.192 331.148 95.7925C329.936 98.9733 327.457 101.619 324.422 103.157C322.449 104.233 320.283 104.873 318.102 105.373C316.815 105.688 315.482 105.714 314.188 105.971C310.771 106.324 307.331 106.215 303.902 106.231C298.067 106.231 292.234 106.233 286.401 106.229C284.609 106.203 282.82 106.332 281.032 106.278C278.446 106.189 275.861 106.247 273.276 106.231C259.888 106.233 246.501 106.225 233.113 106.235C233.237 105.805 233.382 105.383 233.579 104.98C234.905 102.293 235.341 99.2924 235.784 96.3632C236.104 92.1499 236.009 87.9226 236.023 83.7013C236.023 64.6737 236.023 45.6443 236.023 26.6147C235.947 24.5338 235.977 22.4449 235.746 20.3739C235.504 19.0897 235.494 17.7659 235.1 16.5153C234.804 15.5343 234.666 14.5077 234.261 13.5644C233.869 12.6269 233.453 11.6995 233.117 10.7422ZM272.665 64.8502C272.568 65.8451 272.619 66.8478 272.615 67.8467C272.615 74.4521 272.615 81.0595 272.615 87.665C272.615 88.5826 272.572 89.5041 272.663 90.4217C275.849 90.4693 279.037 90.4237 282.225 90.4395C285.476 90.4217 288.728 90.491 291.98 90.3741C292.877 90.3583 293.765 90.0947 294.539 89.6389C295.14 89.2801 295.476 88.6203 295.685 87.9762C296.088 86.7237 296.025 85.3938 296.019 84.0977C296.017 79.2779 296.019 74.4581 296.019 69.6382C296.011 68.3679 295.913 66.9747 295.05 65.966C294.115 64.9631 292.658 64.8085 291.365 64.8026C285.799 64.7986 280.232 64.8184 274.668 64.7986C273.996 64.7848 273.327 64.7868 272.665 64.8502Z" fill="#D1511B"/>
<path d="M342.488 10.7396C343.475 10.6703 344.465 10.7079 345.46 10.704C371.846 10.702 398.234 10.7079 424.623 10.702C424.913 10.7079 425.211 10.7595 425.514 10.809C425.637 11.9902 425.884 13.1555 426.013 14.3367C426.152 15.5753 426.476 16.7822 426.645 18.0169C427.083 20.5695 427.433 23.138 427.894 25.6866C428.063 26.7865 428.306 27.8765 428.391 28.9883C427.447 28.8951 426.556 28.5702 425.651 28.3224C424.41 27.9439 423.133 27.7022 421.878 27.391C418.921 26.7667 415.89 26.6339 412.877 26.5566C403.596 26.5605 394.315 26.5566 385.035 26.5586C384.033 26.5665 383.033 26.5091 382.038 26.6082C381.933 27.6665 381.998 28.7307 381.988 29.7929C381.982 35.8038 381.996 41.8167 381.981 47.8276C381.979 48.1645 382.006 48.5014 382.038 48.8423C383.033 48.9374 384.033 48.882 385.035 48.8899C391.465 48.8919 397.894 48.8899 404.326 48.8899C407.476 48.876 410.636 48.9691 413.78 48.6818C415.216 48.434 416.674 48.3389 418.108 48.0575C419.426 47.7483 420.753 47.463 422.055 47.0785C422.873 46.8407 423.676 46.5037 424.543 46.4601C424.527 53.3827 424.553 60.3072 424.531 67.2277C423.738 67.1247 422.994 66.8195 422.226 66.6253C421.238 66.3696 420.246 66.1318 419.271 65.8444C418.175 65.5075 417.024 65.4778 415.912 65.242C414.866 65.0259 413.796 65.0556 412.744 64.9545C411.988 64.8792 411.235 64.7981 410.483 64.7981C401.933 64.802 393.386 64.798 384.836 64.8C383.9 64.802 382.965 64.7565 382.038 64.8476C381.945 65.7771 381.986 66.7124 381.988 67.6459C381.988 74.3187 381.988 80.9896 381.988 87.6624C381.986 88.58 381.943 89.5015 382.038 90.4191C392.582 90.4568 403.129 90.433 413.675 90.431C415.493 90.2943 417.332 90.5242 419.136 90.1833C420.11 90.0386 421.109 90.0901 422.081 89.8761C423.489 89.5689 424.937 89.4342 426.321 89.0021C427.61 88.6989 428.847 88.148 430.177 88.037C430.064 88.9546 429.829 89.8543 429.706 90.7719C429.199 94.2302 428.379 97.633 427.88 101.093C427.769 101.783 427.576 102.459 427.463 103.148C427.274 104.169 427.202 105.212 426.928 106.218C398.781 106.248 370.631 106.21 342.484 106.236C342.691 105.457 343.059 104.74 343.365 103.999C344.614 101.145 344.962 98.0056 345.211 94.9318C345.39 93.376 345.308 91.8084 345.394 90.2467C345.4 69.1679 345.394 48.0892 345.398 27.0104C345.318 24.8522 345.348 22.6861 345.135 20.5339C344.885 19.3269 344.895 18.0764 344.541 16.8913C344.24 15.835 344.109 14.7311 343.684 13.7164C343.274 12.7275 342.846 11.7464 342.488 10.7396Z" fill="#D1511B"/>
<path d="M486.047 26.6134C487.043 26.5143 488.047 26.5679 489.052 26.5619C494.686 26.5599 500.32 26.5659 505.954 26.558C507.239 26.5659 508.607 26.7145 509.695 27.4657C510.379 27.9334 510.812 28.6765 511.085 29.4455C511.638 30.8763 511.602 32.4381 511.66 33.9482C511.66 38.9741 511.66 44.0021 511.658 49.03C511.604 50.7859 511.618 52.6388 510.779 54.2342C510.23 55.3302 509.09 56.0416 507.905 56.2537C507.06 56.3884 506.205 56.4043 505.359 56.4182C499.922 56.4142 494.487 56.4182 489.052 56.4162C488.047 56.4103 487.043 56.4638 486.047 56.3647C485.945 55.3718 486.003 54.3749 485.999 53.38C485.995 44.7254 486.003 36.0727 485.995 27.418C485.999 27.1485 486.017 26.881 486.047 26.6134Z" fill="#D1511B"/>
</svg>
