<svg width="37" height="37" fill="none" xmlns="http://www.w3.org/2000/svg"><g fill-rule="evenodd" clip-rule="evenodd" fill="#D1511B"><path d="M.213 18.57c0-9.94 8.059-18 18-18s18 8.06 18 18c0 9.941-8.059 18-18 18s-18-8.059-18-18zm25.421-10.2H11.392a2.17 2.17 0 00-2.18 2.163V24.73a2.17 2.17 0 002.18 2.163h12.053l-.564-1.942 1.36 1.25 1.287 1.175 2.285 1.995V10.533a2.17 2.17 0 00-2.179-2.163z"/><path d="M21.531 22.083s-.382-.451-.701-.85c1.392-.389 1.924-1.25 1.924-1.25-.436.284-.85.483-1.223.62a7.06 7.06 0 01-1.54.451 7.535 7.535 0 01-2.753-.01 9.001 9.001 0 01-1.563-.452 6.26 6.26 0 01-.776-.357c-.032-.02-.064-.031-.095-.052a.147.147 0 01-.043-.032c-.191-.105-.298-.178-.298-.178s.51.84 1.86 1.239c-.319.399-.712.871-.712.871-2.349-.073-3.241-1.596-3.241-1.596 0-3.38 1.53-6.121 1.53-6.121 1.53-1.134 2.987-1.103 2.987-1.103l.106.126c-1.913.546-2.795 1.376-2.795 1.376s.233-.126.627-.305c1.137-.493 2.04-.63 2.413-.661.063-.01.116-.021.18-.021a9.103 9.103 0 012.147-.021 8.74 8.74 0 013.2 1.008s-.84-.788-2.647-1.334l.149-.168s1.456-.031 2.986 1.103c0 0 1.53 2.74 1.53 6.121 0 0-.903 1.523-3.252 1.596zM16.89 17.37c-.602 0-1.076.54-1.076 1.2 0 .66.485 1.2 1.075 1.2.601 0 1.076-.54 1.076-1.2.01-.66-.474-1.2-1.075-1.2zm3.848 0c-.6 0-1.075.54-1.075 1.2 0 .66.485 1.2 1.075 1.2.601 0 1.076-.54 1.076-1.2 0-.66-.475-1.2-1.076-1.2z"/></g></svg>