<svg width="37" height="37" fill="none" xmlns="http://www.w3.org/2000/svg"><path fill-rule="evenodd" clip-rule="evenodd" d="M.213 18.57c0-9.94 8.059-18 18-18s18 8.06 18 18c0 9.941-8.059 18-18 18s-18-8.059-18-18zm18.942 5.907s.346-.038.524-.225c.162-.171.157-.495.157-.495s-.022-1.51.693-1.734c.704-.22 1.608 1.461 2.568 2.108.725.488 1.275.381 1.275.381l2.565-.035s1.34-.081.705-1.116c-.053-.085-.371-.766-1.906-2.166-1.609-1.464-1.393-1.227.543-3.761 1.18-1.543 1.651-2.486 1.504-2.888-.14-.386-1.008-.283-1.008-.283l-2.886.017s-.215-.028-.373.065c-.155.091-.256.304-.256.304s-.456 1.194-1.066 2.21c-1.285 2.142-1.799 2.255-2.01 2.122-.489-.31-.366-1.246-.366-1.91 0-2.077.32-2.943-.625-3.167-.314-.075-.545-.123-1.347-.132-1.03-.01-1.902.004-2.396.24-.329.159-.582.51-.427.53.19.026.622.115.851.421.296.396.286 1.283.286 1.283s.17 2.444-.397 2.747c-.39.209-.922-.216-2.07-2.16-.586-.996-1.03-2.096-1.03-2.096s-.085-.206-.238-.317a1.196 1.196 0 00-.443-.175l-2.743.018s-.412.01-.563.187c-.135.156-.01.48-.01.48s2.147 4.932 4.579 7.418c2.23 2.278 4.762 2.13 4.762 2.13h1.148z" fill="#D1511B"/></svg>