<svg width="37" height="37" fill="none" xmlns="http://www.w3.org/2000/svg"><path fill-rule="evenodd" clip-rule="evenodd" d="M36.213 18.57c0 9.941-8.059 18-18 18s-18-8.059-18-18c0-9.94 8.059-18 18-18s18 8.06 18 18zm-23.947-1.649c-1.803.788-3.655 1.597-5.35 2.53-.884.648.292 1.106 1.395 1.535.175.069.349.136.512.204l.413.13c1.227.39 2.595.827 3.786.171 1.956-1.124 3.803-2.423 5.648-3.721.604-.426 1.208-.851 1.816-1.27l.096-.062c.518-.335 1.683-1.09 1.252-.05-1.019 1.114-2.11 2.1-3.207 3.092-.74.668-1.482 1.34-2.207 2.053-.63.513-1.286 1.544-.58 2.262 1.628 1.14 3.28 2.25 4.933 3.362l1.611 1.085c.91.726 2.33.139 2.53-.995l.267-1.566c.494-2.883.987-5.768 1.423-8.66.06-.454.126-.908.194-1.362.162-1.1.325-2.202.376-3.308-.131-1.104-1.47-.862-2.215-.613-3.828 1.457-7.619 3.022-11.395 4.614-.427.19-.861.379-1.297.57z" fill="#D1511B"/></svg>