<svg width="37" height="37" fill="none" xmlns="http://www.w3.org/2000/svg"><g fill-rule="evenodd" clip-rule="evenodd" fill="#D1511B"><path d="M.213 18.57c0-9.94 8.059-18 18-18s18 8.06 18 18c0 9.941-8.059 18-18 18s-18-8.059-18-18zm18-9.6c-2.606 0-2.934.012-3.958.058-1.022.047-1.72.209-2.33.446a4.7 4.7 0 00-1.7 1.107 4.713 4.713 0 00-1.108 1.7c-.238.611-.4 1.31-.446 2.33-.046 1.025-.058 1.352-.058 3.96 0 2.607.011 2.933.058 3.957.047 1.022.209 1.72.446 2.33a4.704 4.704 0 001.107 1.7 4.7 4.7 0 001.7 1.108c.61.238 1.309.4 2.33.447 1.025.046 1.352.058 3.959.058s2.933-.012 3.957-.058c1.022-.047 1.72-.21 2.331-.447a4.697 4.697 0 001.7-1.108 4.713 4.713 0 001.108-1.7c.236-.61.398-1.308.446-2.33.046-1.024.058-1.35.058-3.958 0-2.607-.012-2.934-.058-3.958-.048-1.022-.21-1.72-.446-2.33a4.712 4.712 0 00-1.108-1.7 4.692 4.692 0 00-1.7-1.108c-.612-.237-1.31-.399-2.332-.446-1.024-.046-1.35-.058-3.958-.058h.003z"/><path d="M17.353 10.7h.86c2.564 0 2.868.01 3.88.056.936.042 1.444.199 1.782.33.448.174.768.382 1.104.718.336.336.544.656.718 1.104.131.338.288.846.33 1.782.047 1.012.057 1.316.057 3.878 0 2.562-.01 2.866-.056 3.878-.043.936-.2 1.444-.33 1.782a2.968 2.968 0 01-.72 1.103 2.969 2.969 0 01-1.103.718c-.338.132-.846.288-1.782.33-1.012.047-1.316.057-3.88.057-2.563 0-2.866-.01-3.878-.056-.937-.043-1.445-.2-1.783-.331a2.973 2.973 0 01-1.104-.718 2.975 2.975 0 01-.719-1.104c-.13-.337-.287-.846-.33-1.782-.046-1.012-.055-1.316-.055-3.88 0-2.563.009-2.865.055-3.877.043-.936.2-1.444.33-1.783.175-.448.383-.768.719-1.104a2.98 2.98 0 011.104-.718c.338-.132.847-.288 1.783-.331.885-.04 1.228-.052 3.018-.054v.002zm5.985 1.594a1.152 1.152 0 100 2.304 1.152 1.152 0 000-2.304zm-5.124 1.346a4.93 4.93 0 100 9.861 4.93 4.93 0 000-9.86z"/><path d="M18.214 15.37a3.2 3.2 0 110 6.4 3.2 3.2 0 010-6.4z"/></g></svg>