<svg width="37" height="37" fill="none" xmlns="http://www.w3.org/2000/svg"><g fill-rule="evenodd" clip-rule="evenodd" fill="#D1511B"><path d="M18.213 36.57c-9.941 0-18-8.059-18-18 0-9.94 8.059-18 18-18s18 8.06 18 18c0 9.941-8.059 18-18 18zm.593-7.985c5.901-.003 10.701-4.803 10.703-10.704a10.638 10.638 0 00-3.131-7.572 10.634 10.634 0 00-7.572-3.139c-5.9 0-10.701 4.802-10.703 10.703a10.682 10.682 0 001.428 5.35L8.013 28.77l5.674-1.488a10.694 10.694 0 005.115 1.303h.004z"/><path d="M13.95 25.345l-3.367.883.899-3.283-.212-.337a8.874 8.874 0 01-1.36-4.734c.002-4.905 3.993-8.895 8.9-8.895 2.376 0 4.61.927 6.29 2.608a8.843 8.843 0 012.602 6.294c-.002 4.905-3.993 8.896-8.896 8.896h-.003a8.883 8.883 0 01-4.528-1.24l-.325-.192zm10.248-4.918c-.066-.111-.245-.178-.512-.312s-1.582-.781-1.828-.87c-.245-.09-.423-.134-.601.133-.179.268-.691.87-.847 1.049-.156.178-.312.2-.58.067-.267-.134-1.129-.416-2.15-1.327-.795-.71-1.332-1.585-1.488-1.853-.156-.268-.017-.413.117-.546.12-.12.268-.312.401-.469.134-.156.179-.267.268-.446.089-.178.044-.334-.022-.468-.067-.134-.602-1.45-.825-1.986-.217-.521-.438-.45-.602-.459-.155-.008-.334-.01-.512-.01a.982.982 0 00-.713.335c-.246.268-.937.915-.937 2.231 0 1.317.959 2.588 1.093 2.767.133.178 1.885 2.88 4.568 4.038.638.276 1.136.44 1.525.564.64.203 1.224.174 1.684.105.514-.076 1.583-.646 1.806-1.271.222-.625.222-1.16.155-1.272z"/></g></svg>