<svg width="40" height="40" fill="none" xmlns="http://www.w3.org/2000/svg"><path d="M33.336 16.668v-4.667c0-1.867 0-2.8-.363-3.513a3.333 3.333 0 00-1.457-1.457c-.713-.363-1.647-.363-3.513-.363H8.669c-1.867 0-2.8 0-3.513.363-.627.32-1.137.83-1.457 1.457-.363.713-.363 1.646-.363 3.513v16c0 1.867 0 2.8.363 3.514.32.627.83 1.137 1.457 1.456.713.364 1.646.364 3.513.364h19.334c1.866 0 2.8 0 3.513-.364a3.334 3.334 0 001.457-1.456c.363-.713.363-1.647.363-3.514v-3.833m-7.333-.833h8c.933 0 1.4 0 1.756-.182a1.67 1.67 0 00.729-.728c.181-.357.181-.824.181-1.757v-1.333c0-.934 0-1.4-.181-1.757a1.667 1.667 0 00-.729-.728c-.356-.182-.823-.182-1.756-.182h-8c-.934 0-1.4 0-1.757.182-.314.16-.569.414-.728.728-.182.357-.182.823-.182 1.757v1.333c0 .933 0 1.4.182 1.757.16.313.414.568.728.728.357.182.823.182 1.757.182z" stroke="#FFD464" stroke-width="2"/></svg>