<svg width="40" height="40" fill="none" xmlns="http://www.w3.org/2000/svg"><path d="M4.694 15.437a1 1 0 001.394 1.434l-1.394-1.434zm12.555 1.434a1 1 0 001.394-1.434l-1.394 1.434zm4.111 15.233a1 1 0 101.394 1.434l-1.394-1.434zm12.555 1.434a1 1 0 101.394-1.434l-1.394 1.434zM24.076 8.007a1 1 0 10-.643 1.893l.643-1.893zm5.541 7.376a1 1 0 101.803-.866l-1.803.866zm-13.69 16.61a1 1 0 00.643-1.893l-.643 1.894zm-5.444-7.18a1 1 0 10-1.785.902l1.784-.902zm15.14-11a1 1 0 10-.643 1.894l.644-1.894zm4.413 2.555l-.321.947.321-.947zm2.115-1.042l.946.322-.946-.322zm2.287-3.623a1 1 0 00-1.894-.644l1.894.644zM14.379 26.187a1 1 0 00.644-1.894l-.644 1.894zm-4.412-2.555l-.322.947.322-.947zm-2.115 1.042l-.946-.322.946.322zm-2.287 3.623a1 1 0 101.894.644l-1.894-.644zm.523-11.426c3.078-2.992 8.082-2.992 11.16 0l1.395-1.434c-3.855-3.747-10.094-3.747-13.95 0l1.395 1.434zm8.79-7.829c0 1.654-1.387 3.043-3.158 3.043v2c2.822 0 5.159-2.231 5.159-5.043h-2zm-3.158 3.043c-1.772 0-3.16-1.389-3.16-3.043h-2c0 2.812 2.337 5.043 5.16 5.043v-2zM8.56 9.042C8.56 7.39 9.949 6 11.72 6V4C8.897 4 6.56 6.23 6.56 9.042h2zM11.72 6c1.771 0 3.159 1.389 3.159 3.042h2c0-2.811-2.337-5.042-5.16-5.042v2zm11.034 27.538c3.08-2.993 8.082-2.993 11.161 0l1.394-1.434c-3.855-3.747-10.094-3.747-13.949 0l1.394 1.434zm8.791-7.829c0 1.654-1.387 3.042-3.159 3.042v2c2.823 0 5.16-2.23 5.16-5.042h-2zm-3.159 3.042c-1.771 0-3.159-1.388-3.159-3.042h-2c0 2.811 2.337 5.042 5.16 5.042v-2zm-3.159-3.042c0-1.654 1.387-3.042 3.16-3.042v-2c-2.823 0-5.16 2.23-5.16 5.042h2zm3.16-3.042c1.771 0 3.158 1.388 3.158 3.042h2c0-2.811-2.336-5.042-5.159-5.042v2zM23.432 9.9a10.632 10.632 0 016.184 5.483l1.803-.866a12.632 12.632 0 00-7.344-6.51L23.433 9.9zM16.57 30.1a10.629 10.629 0 01-6.088-5.287l-1.784.902a12.629 12.629 0 007.23 6.279l.642-1.894zm8.41-14.393l4.735 1.608.643-1.894-4.734-1.608-.643 1.894zm8.117-.059l1.34-3.945-1.893-.644-1.34 3.946 1.893.643zm-3.382 1.667a2.667 2.667 0 003.382-1.667l-1.893-.643a.667.667 0 01-.846.416l-.643 1.894zm-14.692 6.978l-4.735-1.608-.643 1.894 4.734 1.608.644-1.894zm-8.117.06l-1.34 3.944 1.893.644 1.34-3.945-1.893-.644zm3.382-1.668a2.667 2.667 0 00-3.382 1.667l1.893.643a.667.667 0 01.846-.416l.643-1.894z" fill="#FFD464"/></svg>