<svg width="36" height="36" fill="none" xmlns="http://www.w3.org/2000/svg"><path d="M18 18l4.5-4.5m12 4.5c0 9.112-7.387 16.5-16.5 16.5S1.5 27.111 1.5 18C1.5 8.885 8.887 1.5 18 1.5M28.5 18c0 5.798-4.701 10.5-10.5 10.5S7.5 23.797 7.5 18c0-5.8 4.701-10.5 10.5-10.5m4.5 5.25V6.178a.75.75 0 01.226-.537l4.5-4.398a.75.75 0 011.274.537v4.968c0 .414.336.75.75.75h4.968c.664 0 1 .8.537 1.274l-4.398 4.5a.75.75 0 01-.536.226H23.25a.75.75 0 01-.75-.75z" stroke="#FFD464" stroke-width="2" stroke-linecap="round"/></svg>