<svg width="37" height="37" fill="none" xmlns="http://www.w3.org/2000/svg"><g fill="#D1511B"><path d="M17.573 22.253l-.011-.645-.96-.317a1.312 1.312 0 00-.415-.067c-.73 0-1.384.616-1.384 1.453 0 .837.652 1.453 1.383 1.453h.002c.23 0 .458-.06.66-.177l.002-.001a1.44 1.44 0 00.495-.481 1.49 1.49 0 00.217-.642l.011-.576z"/><path d="M24.673 12.919c.127.084.257.161.392.232.874.443 1.727.578 2.148.532v3.453s-1.2-.051-2.09-.292c-1.242-.338-2.038-.856-2.038-.856s-.552-.372-.593-.397v7.134c0 .397-.104 1.389-.413 2.216a6.705 6.705 0 01-1.146 1.938s-.763.962-2.103 1.608a6.001 6.001 0 01-2.505.58l-.085.002s-1.843.075-3.497-1.069a6.999 6.999 0 01-1.481-1.42c-.524-.68-.845-1.487-.928-1.723v-.008c-.132-.401-.408-1.372-.367-2.31.066-1.65.61-2.667.755-2.92a6.806 6.806 0 011.463-1.836 6.315 6.315 0 012.297-1.25 6.245 6.245 0 012.596-.207l-.004 3.541a2.812 2.812 0 00-.888-.143c-1.593 0-2.883 1.322-2.883 2.953 0 1.632 1.29 2.953 2.883 2.953.496.001.983-.13 1.414-.38a2.912 2.912 0 001.018-.986c.255-.409.407-.875.443-1.357l.012-.639V8.82h3.419s-.041.334.045.849c0 0 .38 1.506 1.13 2.38.3.33.637.622 1.006.87z"/><path fill-rule="evenodd" clip-rule="evenodd" d="M36.213 18.57c0 9.941-8.059 18-18 18s-18-8.059-18-18c0-9.94 8.059-18 18-18s18 8.06 18 18zm-12.23-9.59l.205-1.66h-6.615v7.559l-.3-.04a7.746 7.746 0 00-3.22.256 7.815 7.815 0 00-2.841 1.546 8.454 8.454 0 00-1.8 2.247c-.226.399-.865 1.645-.944 3.589-.045 1.038.202 2.05.366 2.6.107.306.58 1.56 1.242 2.42a8.56 8.56 0 001.806 1.732 7.712 7.712 0 002.956 1.21c.407.075.754.108 1.007.122.127.007.326.008.403.009.413-.012 1.82-.05 3.233-.732a8.23 8.23 0 001.904-1.28c.22-.197.534-.534.655-.664a8.655 8.655 0 001.44-2.416l.002-.006.002-.006a8.837 8.837 0 00.507-2.741v-4.664c.227.08.477.16.74.232.56.15 1.176.233 1.616.28.227.023.591.048.732.058l1.634.07v-6.693l-1.665.184c-.023 0-.166 0-.414-.056a3.846 3.846 0 01-.88-.318 3.004 3.004 0 01-.248-.147 4.01 4.01 0 01-.714-.614c-.204-.244-.408-.643-.574-1.069a14.116 14.116 0 01-.212-.632c-.02-.136-.023-.376-.023-.376z"/></g></svg>