<svg width="559" height="117" fill="none" xmlns="http://www.w3.org/2000/svg"><path d="M423.246.085c4.829-.037 9.659-.006 14.49-.016 2.983-.015 5.966.048 8.949-.065 24.195.002 48.392 0 72.589 0 3.524.014 7.056-.087 10.57.25 2.812.25 5.537 1.03 8.279 1.66 2.677.591 5.312 1.556 7.561 3.148.971.677 1.933 1.371 2.892 2.07 1.446 1.053 2.682 2.377 3.703 3.841.877 1.253 1.839 2.45 2.583 3.792.615 1.028 1.05 2.152 1.462 3.278.557 1.573.827 3.228 1.279 4.833.308 1.38.729 2.74.886 4.148.651 3.46.474 7 .504 10.502 0 3.103 0 6.209.002 9.314.025 3.928.014 7.924-1.07 11.733-.382 1.758-.738 3.528-1.279 5.246-.638 2.467-1.848 4.768-3.391 6.792-.905 1.204-1.704 2.495-2.77 3.569-1.215 1.264-2.695 2.22-4.107 3.238-1.127.836-2.35 1.538-3.615 2.143-2.554 1.135-5.336 1.57-8.017 2.29-2.538.546-5.105 1.03-7.71 1.027-2.852.143-5.706.085-8.558.097-7.223-.002-14.446.004-21.667-.006-.147.63-.089 1.28-.083 1.925.037 3.682-.126 7.38.306 11.048.201 1.82.97 3.582 2.221 4.929 2.512 3.252 4.948 6.56 7.452 9.818.736.985 1.498 1.956 2.215 2.957.762 1.066 1.629 2.055 2.371 3.139-6.819.028-13.639.014-20.456.008-1.066-.028-2.116.147-3.174.155-6.7-.012-13.398-.002-20.096-.006-5.767.026-11.537-.056-17.302.057-9.007-.016-18.014.02-27.021-.016 4.204-6.096 8.452-12.162 12.666-18.252.859-1.445 1.295-3.094 1.633-4.727.243-.908.36-1.84.465-2.772.659-3.726.583-7.525.595-11.295-.008-17.24.01-34.48-.01-51.722.046-2.011-.453-3.967-.929-5.904-.574-1.78-1.32-3.545-2.517-5-.681-.854-1.271-1.77-1.896-2.661-3.323-4.864-6.698-9.693-10.005-14.565zm22.27 10.67c.577.946 1.251 1.837 1.72 2.848.794 1.54 1.177 3.24 1.581 4.911.487 2.606.539 5.27.523 7.914 0 22.061 0 44.125.002 66.187-.077 2.251-.145 4.522-.656 6.728a24.733 24.733 0 01-1.426 4.947c-.278.642-.603 1.268-.77 1.95 14.118-.02 28.238-.004 42.356-.008-.097-.658-.459-1.231-.688-1.843-.732-1.728-1.229-3.548-1.557-5.393-.76-4.06-.585-8.21-.609-12.32-.002-3.964-.002-7.928 0-11.892.008-.84-.083-1.686.076-2.515 9.808.006 19.619 0 29.427.002 4.487-.013 8.975.076 13.458-.178 2.007-.159 3.979-.587 5.946-1.009 2.864-.822 5.68-2.128 7.788-4.28 2.307-2.248 3.733-5.248 4.538-8.328.72-2.961 1.015-6.013 1.023-9.057-.008-3.83-.002-7.664-.002-11.497-.034-3.938.181-7.927-.643-11.807-.666-3.245-1.861-6.477-4.041-9.022-2.287-2.745-5.616-4.453-9.053-5.28-3.659-1.012-7.487-1.101-11.258-1.105-24.728 0-49.453-.002-74.179 0-1.19.01-2.377-.044-3.556.047zM.024 10.74c.925-.065 1.853-.032 2.782-.034h36.791c.94 0 1.884-.043 2.822.058-.248.9-.737 1.706-1.032 2.59-.775 1.917-1.1 3.97-1.47 5.993-.302 1.62-.258 3.27-.361 4.907-.127 2.44-.078 4.883-.086 7.325 0 7.265.002 14.529-.002 21.794.517-.307.834-.838 1.225-1.278.798-.985 1.719-1.863 2.506-2.858 3.246-3.83 6.573-7.59 9.832-11.41.941-1.11 1.878-2.223 2.866-3.29 1.722-1.979 3.373-4.022 5.155-5.95 1.87-2.232 3.824-4.394 5.644-6.67.648-.939 1.293-1.888 1.838-2.893.656-1.54 1.167-3.195 1.038-4.887.095-1.13-.191-2.222-.313-3.332.247-.05.502-.083.762-.1 9.878.005 19.758 0 29.636.001.943.006 1.889-.043 2.834.052-.39.388-.897.612-1.37.872-1.247.652-2.422 1.43-3.634 2.146-2.336 1.655-4.58 3.462-6.542 5.553-5.607 5.908-11.163 11.866-16.748 17.793-.549.609-1.169 1.152-1.644 1.822.238.65.652 1.21 1.008 1.799 2.651 4.544 5.33 9.07 8.019 13.593.487.948 1.052 1.85 1.614 2.755a95.683 95.683 0 002.214 3.738 658.29 658.29 0 005.302 9c.89 1.66 1.955 3.22 2.858 4.877 1.288 2.096 2.45 4.266 3.754 6.355 1.846 3.116 3.636 6.265 5.573 9.327.65 1.056 1.277 2.13 2.014 3.133.706.961 1.257 2.028 1.965 2.99 1.772 2.567 3.64 5.07 5.662 7.448.644.801 1.39 1.516 2.033 2.323-14.317.032-28.634-.002-42.951.016-.702.004-1.404.026-2.098-.071-.698-1.477-1.531-2.884-2.25-4.351-.626-1.099-1.256-2.197-1.785-3.345-1.283-2.422-2.574-4.836-3.85-7.26-.508-1.121-1.182-2.156-1.723-3.257-1.382-2.65-2.828-5.264-4.19-7.922-.885-1.472-1.577-3.044-2.392-4.552-.764-1.245-1.343-2.59-2.078-3.85-1.027-1.945-2.033-3.901-3.085-5.83-2.353 2.682-4.789 5.288-7.128 7.98-.49.584-1.111 1.084-1.465 1.77-.106.641-.046 1.297-.05 1.947.008 4.822-.008 9.644.008 14.466.082 2.271.133 4.556.57 6.796.23 1.567.72 3.079 1.21 4.584.316.979.845 1.876 1.106 2.875-11.016.038-22.034.004-33.05.016-3.121-.016-6.246.028-9.368-.018a9 9 0 01.43-1.153c1.346-2.995 2.096-6.241 2.312-9.511.046-1 .12-1.998.136-2.999-.002-22.787.002-45.574-.002-68.36-.072-1.6-.076-3.213-.382-4.79-.265-1.878-.585-3.762-1.243-5.548C.925 12.823.326 11.838.024 10.74zm115.156.01c.986-.081 1.978-.044 2.969-.046 5.702-.002 11.403.002 17.103 0 .984 0 1.969-.03 2.953.044-1.078 1.768-2.394 3.484-2.794 5.563-1 3.752-.63 7.666-.817 11.5-.006 19.422.002 38.844-.002 58.266-.008.854-.042 1.715.071 2.567.39-.02.529-.41.7-.7 3.54-7.097 7.106-14.18 10.646-21.279.7-1.314 1.207-2.723 1.953-4.015.901-1.748 1.712-3.54 2.653-5.268 1.183-2.5 2.514-4.928 3.695-7.43 5.403-10.725 10.751-21.477 16.172-32.194.895-1.929 1.941-3.784 2.84-5.712.189-.406.354-.828.617-1.195.248-.18.58-.123.877-.153 15.715.014 31.429 0 47.144.008 1.12.008 2.244-.045 3.367.044-.847 1.494-1.974 2.864-2.438 4.542-.304 1.05-.67 2.099-.74 3.199-.043.604-.075 1.213-.179 1.811-.238 1.235-.111 2.495-.145 3.742.02 1.455-.022 2.91-.063 4.362v55.095c.015 2.247-.046 4.495.051 6.742.036 1.716-.014 3.434.03 5.153.163 2.21.352 4.459 1.118 6.558.561 1.561 1.529 2.917 2.38 4.324-6.495.032-12.992.004-19.489.014-1.146-.014-2.289.04-3.431-.026.221-.658.692-1.187 1.03-1.785a14.595 14.595 0 001.669-3.831c.378-1.725.666-3.479.67-5.246.04-2.713.151-5.425.125-8.138.002-19.755-.002-39.51 0-59.262a34.92 34.92 0 00-.057-.817c-.396.143-.515.593-.712.918-1.436 2.966-2.963 5.884-4.429 8.835l-5.833 11.627c-.633 1.175-1.088 2.434-1.78 3.577a141.33 141.33 0 00-2.579 5.2c-.613 1.021-.971 2.163-1.546 3.2-4.484 8.933-8.935 17.883-13.455 26.8-1.667 3.418-3.447 6.783-5.097 10.21-1.158 2.22-2.25 4.473-3.389 6.703-.342.626-.613 1.288-.861 1.958-.629.107-1.263.089-1.892.083-15.174-.026-30.35.022-45.522-.024-.053-.985-.01-1.97-.018-2.955-.002-24.64 0-49.282 0-73.922.03-2.315-.115-4.628-.063-6.942-.046-2.842-.394-5.732-1.514-8.368-.588-1.155-1.3-2.241-1.988-3.337zm117.937-.008c.987-.07 1.977-.033 2.969-.035h90.488c2.004.031 4.013-.066 6.017.045a8.27 8.27 0 01-.252 1.395c-.72 2.595-1.45 5.187-2.128 7.793-.672 2.2-1.15 4.455-1.879 6.637-.917.093-1.838.044-2.753.048-9.745-.002-19.489.004-29.234-.002-2.651-.11-5.304-.046-7.955-.062-4.244 0-8.486-.002-12.726.002-1.002.004-2.005-.051-2.999.048-.099.993-.044 1.99-.048 2.986-.004 4.095-.002 8.191-.002 12.288.02 2.574-.049 5.153.054 7.727.044 2.041-.034 4.084.028 6.128 7.682.057 15.369-.026 23.053.041 2.053.103 4.115-.065 6.159.19.722.07 1.452.032 2.182.072 2.321.208 4.654.3 6.97.583.969.186 1.939.358 2.93.432 2.486.33 4.972.687 7.422 1.234 1.358.192 2.637.706 3.955 1.066 1.85.682 3.691 1.596 4.988 3.126 1.327 1.548 1.909 3.57 2.138 5.559.251 2.04.155 4.096.173 6.145-.006 4.291.008 8.582-.006 12.873-.123 2.316-.169 4.685-.919 6.906-.199.609-.374 1.225-.594 1.826-1.212 3.18-3.691 5.826-6.726 7.364-1.973 1.076-4.139 1.716-6.32 2.216-1.287.315-2.62.341-3.914.598-3.417.353-6.857.244-10.286.26-5.835 0-11.668.002-17.501-.002-1.792-.026-3.581.103-5.369.049-2.586-.089-5.171-.031-7.756-.047-13.388.002-26.775-.006-40.163.004a7.69 7.69 0 01.466-1.255c1.326-2.687 1.762-5.688 2.205-8.617.32-4.213.225-8.44.239-12.662V26.615c-.076-2.081-.046-4.17-.277-6.241-.242-1.284-.252-2.608-.646-3.859-.296-.98-.434-2.007-.839-2.95-.392-.938-.808-1.865-1.144-2.823zm39.548 54.108c-.097.995-.046 1.998-.05 2.997v19.818c0 .918-.043 1.84.048 2.757 3.186.047 6.374.002 9.562.017 3.251-.017 6.503.052 9.755-.065a5.258 5.258 0 002.559-.735c.601-.359.937-1.019 1.146-1.663.403-1.252.34-2.582.334-3.878-.002-4.82 0-9.64 0-14.46-.008-1.27-.106-2.663-.969-3.672-.935-1.003-2.392-1.157-3.685-1.163-5.566-.004-11.133.015-16.697-.004a17.297 17.297 0 00-2.003.051z" fill="#D1511B"/><path d="M342.488 10.74c.987-.07 1.977-.032 2.972-.036 26.386-.002 52.774.004 79.163-.002.29.006.588.057.891.107.123 1.181.37 2.347.499 3.528.139 1.238.463 2.445.632 3.68.438 2.553.788 5.121 1.249 7.67.169 1.1.412 2.19.497 3.301-.944-.093-1.835-.418-2.74-.666-1.241-.378-2.518-.62-3.773-.931-2.957-.624-5.988-.757-9.001-.834-9.281.004-18.562 0-27.842.002-1.002.008-2.002-.05-2.997.05-.105 1.057-.04 2.122-.05 3.184-.006 6.01.008 12.024-.007 18.035-.002.336.025.673.057 1.014.995.095 1.995.04 2.997.048 6.43.002 12.859 0 19.291 0 3.15-.014 6.31.08 9.454-.208 1.436-.248 2.894-.343 4.328-.625 1.318-.309 2.645-.594 3.947-.979.818-.237 1.621-.574 2.488-.618-.016 6.923.01 13.847-.012 20.768-.793-.103-1.537-.408-2.305-.603-.988-.255-1.98-.493-2.955-.78-1.096-.338-2.247-.367-3.359-.603-1.046-.216-2.116-.186-3.168-.288-.756-.075-1.509-.156-2.261-.156-8.55.004-17.097 0-25.647.002-.936.002-1.871-.043-2.798.048-.093.93-.052 1.864-.05 2.798v20.016c-.002.918-.045 1.84.05 2.757 10.544.038 21.091.014 31.637.012 1.818-.137 3.657.093 5.461-.248.974-.144 1.973-.093 2.945-.307 1.408-.307 2.856-.442 4.24-.874 1.289-.303 2.526-.854 3.856-.965-.113.918-.348 1.817-.471 2.735-.507 3.458-1.327 6.861-1.826 10.321-.111.69-.304 1.366-.417 2.055-.189 1.021-.261 2.064-.535 3.07-28.147.03-56.297-.008-84.444.018.207-.779.575-1.496.881-2.237 1.249-2.854 1.597-5.993 1.846-9.067.179-1.556.097-3.124.183-4.685.006-21.08 0-42.158.004-63.237-.08-2.158-.05-4.324-.263-6.476-.25-1.207-.24-2.458-.594-3.643-.301-1.056-.432-2.16-.857-3.175-.41-.989-.838-1.97-1.196-2.976zm143.559 15.873c.996-.099 2-.045 3.005-.051 5.634-.002 11.268.004 16.902-.004 1.285.008 2.653.157 3.741.908.684.467 1.117 1.21 1.39 1.98.553 1.43.517 2.992.575 4.502 0 5.026 0 10.054-.002 15.082-.054 1.756-.04 3.609-.879 5.204-.549 1.096-1.689 1.808-2.874 2.02-.845.134-1.7.15-2.546.164-5.437-.004-10.872 0-16.307-.002-1.005-.006-2.009.048-3.005-.051-.102-.993-.044-1.99-.048-2.985-.004-8.655.004-17.307-.004-25.962.004-.27.022-.537.052-.805z" fill="#D1511B"/></svg>