<svg width="481" height="96" fill="none" xmlns="http://www.w3.org/2000/svg"><path d="M0 .055C1.179-.037 2.366.017 3.555.007c24.72-.002 49.438 0 74.16 0 3.77.004 7.597.093 11.255 1.11 3.436.83 6.764 2.546 9.05 5.302 2.179 2.555 3.374 5.8 4.04 9.059.823 3.896.609 7.902.643 11.857 0 3.848-.006 7.697.002 11.544-.008 3.057-.303 6.122-1.022 9.095-.806 3.092-2.231 6.105-4.538 8.362-2.107 2.161-4.922 3.473-7.785 4.299-1.967.424-3.939.853-5.945 1.013-4.481.254-8.969.165-13.454.179-9.806-.002-19.614.004-29.42-.002-.159.832-.067 1.681-.075 2.525-.002 3.98-.002 7.96 0 11.94.024 4.128-.151 8.295.608 12.373.328 1.853.825 3.68 1.557 5.415.229.615.59 1.19.688 1.85-14.114.005-28.23-.011-42.345.009.167-.685.491-1.314.77-1.958a24.928 24.928 0 001.425-4.968c.511-2.215.579-4.495.656-6.756-.002-22.154-.002-44.31-.002-66.463.016-2.655-.035-5.33-.523-7.946-.403-1.678-.787-3.385-1.58-4.932C1.25 1.9.577 1.004 0 .054zm40.514 15.924c-.03.269-.048.538-.052.808.008 8.69 0 17.38.004 26.07.004 1-.054 2 .048 2.997.996.1 2 .046 3.004.052 5.434.002 10.867-.002 16.303.002.845-.014 1.7-.03 2.545-.165 1.185-.213 2.324-.928 2.873-2.028.839-1.602.825-3.463.879-5.226.002-5.049.002-10.098.002-15.144-.058-1.517-.022-3.085-.575-4.522-.272-.772-.706-1.518-1.39-1.988-1.087-.754-2.455-.904-3.74-.912-5.632.008-11.265.002-16.897.004-1.004.006-2.008-.047-3.004.052zM111.709.048c.924-.074 1.855-.04 2.789-.042h68.79c4.209.03 8.424-.107 12.627.193 1.426.147 2.859.285 4.257.629 3.398.629 6.804 1.827 9.448 4.127 2.3 1.975 3.829 4.737 4.668 7.627.366 1.582.786 3.168.839 4.802.04 1.592.213 3.18.175 4.774-.006 5.572-.002 11.144-.002 16.716-.02 2.339-.113 4.711-.793 6.966-.414 1.341-.881 2.696-1.744 3.823-1.055 1.55-2.658 2.647-4.376 3.341-.823.259-1.656.466-2.487.673-1.744.31-3.515.41-5.271.599.682 1.242 1.209 2.561 1.855 3.82.625 1.358 1.374 2.654 1.933 4.045.73 1.55 1.521 3.072 2.276 4.615.792 1.773 1.661 3.512 2.523 5.251.923 2.032 1.923 4.028 2.911 6.03.939 2.1 2.002 4.14 2.949 6.24 1.809 3.737 3.348 7.675 5.944 10.965.163.23.314.477.478.726-13.067.056-26.135-.002-39.202.028-.572.01-1.139.008-1.696-.08-.65-1.83-1.469-3.594-2.195-5.395-4.99-11.932-9.959-23.879-14.915-35.825-.1-.408-.557-.366-.869-.383-3.187.006-6.372.02-9.557-.003a5.373 5.373 0 00-.929.087c.002 6.036 0 12.074.002 18.11.036 4.734-.141 9.483.29 14.207.37 2.372.748 4.784 1.712 7.003.304.755.67 1.487.923 2.265-11.136.018-22.272.002-33.406.008-3.004-.02-6.008.038-9.009-.026.114-.728.513-1.357.786-2.032 1.125-2.728 1.672-5.66 1.926-8.59.307-4.803.161-9.617.195-14.427V20.168c-.012-2.458.048-4.916-.099-7.37.006-1.608-.205-3.202-.495-4.778-.229-1.72-.764-3.387-1.485-4.957-.488-1.067-1.213-1.99-1.766-3.015zM152.133 16c.008 7.425.004 14.85.002 22.276.762.149 1.545.07 2.326.077h17.298c1.31-.004 2.634.046 3.936-.169.909-.16 1.829-.605 2.321-1.425.741-1.138.664-2.555.701-3.855-.004-4.048.008-8.096-.008-12.143-.004-1.288-.182-2.703-1.059-3.708-1.155-1.057-2.831-1.082-4.305-1.124-6.229-.006-12.458 0-18.685-.002-.847.002-1.694-.056-2.527.073zM227.172.054c1.004-.087 2.018-.04 3.034-.043 11.333-.004 22.666 0 33.998-.002 1.786.03 3.575-.064 5.363.047-.394 1.165-1.008 2.241-1.362 3.42-.543 1.48-.849 3.028-1.028 4.59-.477 2.343-.438 4.74-.523 7.119-.006 21.563.002 43.125-.004 64.686.016 1.86.034 3.727.244 5.58a27.109 27.109 0 001.33 7.116c.368 1.17.977 2.247 1.349 3.42-9.279.015-18.556 0-27.835.005-4.859-.02-9.721.036-14.578-.026.092-.618.42-1.156.672-1.715 1.376-3.284 1.988-6.842 2.122-10.384.21-4.38.077-8.767.115-13.149 0-18.442.002-36.882-.002-55.324-.107-2.591-.06-5.208-.604-7.757-.241-1.489-.5-2.986-1.052-4.397-.364-1.082-.939-2.083-1.239-3.186zm52.988-.01c4.155-.088 8.317-.012 12.478-.038h56.465c3.734.014 7.476-.082 11.204.215 2.863.263 5.704.81 8.442 1.707 3.125 1.107 6.119 2.864 8.213 5.485 2.25 2.708 3.571 6.082 4.26 9.509.537 2.366.806 4.794.855 7.22.171 3.25.058 6.505.092 9.757-.006 12.006.01 24.01-.008 36.015-.189 3.168-.268 6.37-.978 9.474-.752 3.031-1.808 6.056-3.716 8.564-2.082 2.804-5.106 4.808-8.376 5.952-2.434.937-5.021 1.35-7.584 1.733-2.866.289-5.749.313-8.626.29-23.527.003-47.055-.001-70.582.003-.701-.024-1.419.101-2.089-.108 1.905-3.896 2.777-8.239 2.845-12.561.179-3.317.072-6.639.101-9.958-.002-19.304.002-38.608-.002-57.91-.101-1.996-.035-4.008-.377-5.982a33.83 33.83 0 00-1.038-5.433c-.398-1.363-1.044-2.629-1.579-3.934zm39.575 15.954c.004 21.344.012 42.69-.004 64.033 1.303.088 2.613.016 3.923.038h14.315c1.903-.052 3.939.08 5.665-.882 1.133-.642 1.501-2.004 1.751-3.192.275-2.08.185-4.183.201-6.275V26.934c-.016-2.307.068-4.621-.175-6.92-.131-.95-.447-1.908-1.07-2.647-.628-.738-1.6-1.027-2.503-1.232-1.344-.244-2.714-.206-4.068-.21-5.103.004-10.207 0-15.309.002-.914.008-1.827-.064-2.726.071zM393.412.053c2.394-.1 4.792-.014 7.189-.041h73.166c.849.003 1.708-.058 2.563.07.304 2.212.789 4.395 1.104 6.608.457 3.919 1.457 7.763 1.769 11.7-1.602-.323-3.119-.963-4.722-1.27-1.235-.227-2.445-.553-3.686-.698-4.812-.687-9.683-.444-14.524-.49H436.19c-1.075.01-2.147-.048-3.209.046-.101.997-.043 2-.047 3.001-.002 4.776 0 9.552 0 14.329.027 1.667-.07 3.339.045 5.005 2.591.111 5.188.012 7.784.045 6.559-.003 13.118.006 19.677-.003 2.8-.072 5.619-.207 8.365-.813a29.812 29.812 0 003.636-.825c.974-.285 1.923-.675 2.941-.822.091 2.187.008 4.378.038 6.569-.002 3.714 0 7.427-.002 11.142-.014 1.061.049 2.126-.052 3.187-1.014-.17-1.953-.597-2.939-.84-1.256-.307-2.503-.651-3.773-.872-1.167-.265-2.366-.314-3.535-.525-2.941-.313-5.899-.215-8.848-.23h-18.888c-1.471.029-2.942-.063-4.404.047-.107 1.2-.029 2.408-.045 3.612 0 6.368-.002 12.736 0 19.104.004.99-.054 1.98.047 2.968 6.502.043 13.007.004 19.513.018 4.904-.024 9.811.057 14.716-.066 1.13.048 2.253-.112 3.376-.249 2.12-.11 4.209-.547 6.281-1.007 1.394-.304 2.72-.876 4.133-1.13-.198 2.203-.644 4.378-1.101 6.54-.245 1.595-.453 3.197-.829 4.77-.489 2.314-.774 4.664-1.215 6.987-28.135.034-56.272.004-84.409.013.117-.847.646-1.562.922-2.362.941-2.507 1.48-5.16 1.724-7.825.29-3.542.195-7.096.211-10.647-.002-19.966.004-39.93-.002-59.895.016-1.268-.076-2.532-.177-3.793a28.325 28.325 0 00-1.632-8.583c-.33-.94-.809-1.817-1.08-2.775z" fill="#fff"/></svg>